<svg xmlns="http://www.w3.org/2000/svg" width="512" height="512" viewBox="0 0 512 512" version="1.1">
	<path d="M 250 123.091 C 231.938 125.844, 225.316 127.230, 187.500 136.172 C 168.800 140.593, 148.315 145.908, 141.977 147.981 C 135.640 150.054, 127.540 152.074, 123.977 152.469 C 99.806 155.150, 53.168 166.161, 41.763 171.881 C 35.628 174.958, 33.682 176.624, 28.779 183 C 22.392 191.306, 21.589 194, 25.500 194 C 28.514 194, 28.524 194.163, 26 201.500 C 24.900 204.697, 23.993 208.255, 23.985 209.407 C 23.975 210.785, 23.704 211.083, 23.194 210.279 C 22.006 208.410, 15.142 209.866, 13.862 212.258 C 12.135 215.485, 11.513 237.300, 12.974 243.391 C 14.123 248.179, 14.064 248.972, 12.373 251.553 C 10.692 254.117, 10.500 256.570, 10.500 275.455 C 10.500 299.600, 11.213 302.703, 17.445 305.675 C 22.391 308.034, 22.203 310.938, 16.876 314.463 L 12.753 317.192 13.466 334.346 C 13.859 343.795, 14.707 352.623, 15.353 354 C 16.048 355.479, 17.989 356.979, 20.110 357.674 C 22.798 358.554, 51.413 362, 56.038 362 C 56.414 362, 58.545 364.820, 60.774 368.267 C 63.003 371.714, 65.766 375.383, 66.914 376.422 C 68.061 377.460, 69 378.690, 69 379.155 C 69 379.620, 65.963 380.001, 62.250 380.002 C 54.024 380.005, 28.793 381.873, 28.139 382.528 C 27.879 382.788, 27.893 383.227, 28.170 383.504 C 28.921 384.254, 57.162 387.630, 86.552 390.482 C 100.823 391.867, 119.475 393.874, 128 394.943 C 143.408 396.874, 143.601 396.874, 160.500 394.890 C 169.850 393.792, 186.500 392.501, 197.500 392.022 C 208.500 391.543, 224.475 390.224, 233 389.092 C 241.525 387.961, 263.800 385.428, 282.500 383.466 C 301.200 381.503, 323.250 379.022, 331.500 377.952 C 372.436 372.644, 411.491 367.886, 429.500 366.011 C 472.634 361.521, 501.422 357.978, 502.356 357.044 C 504.083 355.317, 500.232 354.709, 490.928 355.240 C 486.018 355.520, 482.007 355.693, 482.015 355.624 C 482.023 355.556, 482.655 353.700, 483.418 351.500 L 484.806 347.500 493.153 347 L 501.500 346.500 501.805 341.169 C 502.166 334.867, 501.086 333.219, 496.325 332.806 C 493.307 332.544, 492.626 331.998, 491.579 329 C 490.247 325.188, 482.608 317, 480.382 317 C 478.558 317, 478.635 315.486, 480.615 312.465 C 482.153 310.118, 482.707 310, 492.194 310 L 502.158 310 501.829 247.120 L 501.500 184.240 495 182.776 C 485.812 180.708, 416.286 162.341, 386.500 154.115 C 372.750 150.317, 343.500 142.232, 321.500 136.147 C 282.046 125.236, 265.458 120.932, 263.500 121.099 C 262.950 121.146, 256.875 122.042, 250 123.091 M 233 137 C 211.372 140.673, 210.813 140.824, 218.572 140.910 C 229.031 141.027, 234.922 143.065, 239.525 148.159 C 248.852 158.483, 250.324 169.319, 251.936 239.500 C 252.940 283.234, 252.104 295.964, 248.062 298.462 C 245.494 300.049, 247.348 301.084, 252.250 300.802 L 257.500 300.500 257.810 235 C 258.109 171.709, 257.474 132.903, 256.142 133.090 C 255.789 133.139, 245.375 134.899, 233 137 M 267.744 150.749 C 267.879 160.512, 268.104 197.750, 268.244 233.500 C 268.483 294.248, 268.947 304.938, 271.102 299.434 C 272.055 297.002, 272.221 199.929, 271.339 161.663 C 270.757 136.416, 270.489 133, 269.089 132.999 C 267.687 132.998, 267.529 135.092, 267.744 150.749 M 281.610 213.177 C 281.964 256.255, 282.535 291.808, 282.877 292.184 C 283.220 292.561, 331.006 293.192, 389.068 293.588 L 494.637 294.306 494.326 277.403 C 494.156 268.106, 493.865 244.865, 493.681 225.756 C 493.497 206.647, 493.088 190.754, 492.772 190.438 C 492.456 190.122, 468.415 183.869, 439.349 176.543 C 377.131 160.860, 302.582 141.266, 282.732 135.378 C 281.049 134.879, 280.995 138.583, 281.610 213.177 M 141 159.789 C 141 162.674, 140.289 164.715, 138.600 166.678 L 136.201 169.468 165.850 173.226 C 182.158 175.293, 198.115 177.280, 201.312 177.641 L 207.124 178.298 203.966 172.899 C 202.229 169.930, 199.907 166.524, 198.806 165.331 C 193.847 159.960, 182.090 157.529, 155.250 156.327 L 141 155.689 141 159.789 M 199.777 161.060 C 204.506 163.466, 208.728 169.549, 209.662 175.303 C 210.185 178.526, 210.526 178.800, 214.715 179.374 C 217.185 179.713, 219.570 179.766, 220.013 179.492 C 221.043 178.856, 218.849 169.459, 216.721 165.391 C 214.742 161.609, 211.648 160.330, 202.500 159.511 L 195.500 158.884 199.777 161.060 M 119.500 164 C 119.151 164.565, 119.970 165, 121.382 165 C 122.757 165, 124.160 164.550, 124.500 164 C 124.849 163.435, 124.030 163, 122.618 163 C 121.243 163, 119.840 163.450, 119.500 164 M 146.571 176.571 C 145.707 177.436, 145 178.277, 145 178.441 C 145 178.605, 143.883 184.132, 142.517 190.723 C 141.152 197.314, 139.573 206.035, 139.010 210.104 C 138.447 214.172, 137.105 222.225, 136.028 228 C 134.394 236.768, 134.024 243.838, 133.785 270.860 L 133.500 303.220 138.500 302.619 C 141.250 302.288, 146.295 302.013, 149.712 302.009 C 155.848 302, 156.002 301.931, 162.212 296.354 C 165.670 293.249, 170.848 289.623, 173.717 288.296 C 179.063 285.824, 190.843 284.067, 202.500 284.002 C 211.068 283.955, 211.241 283.748, 209.996 274.970 C 209.108 268.708, 209.208 266.864, 210.654 262.843 C 212.206 258.525, 212.250 256.375, 211.141 238.801 C 209.363 210.602, 206.234 184.755, 204.433 183.377 C 202.903 182.207, 184.109 179.049, 163.500 176.500 C 148.593 174.656, 148.486 174.657, 146.571 176.571 M 143.423 177.124 C 143.041 177.743, 142.137 181.455, 141.414 185.374 C 140.691 189.293, 139.221 196.775, 138.148 202 C 136.242 211.279, 134.458 225.896, 135.345 224.967 C 135.591 224.710, 136.545 219.326, 137.466 213.002 C 139.090 201.857, 143.276 181.051, 144.575 177.665 C 145.296 175.787, 144.485 175.406, 143.423 177.124 M 149.242 180.034 C 146.627 181.085, 145.657 183.078, 143.455 191.924 C 139.669 207.126, 137.827 235.592, 139.648 250.750 L 140.279 256 146.574 256 C 154.359 256, 156.653 255.153, 165.632 248.961 C 172.499 244.226, 173.244 243.966, 185.620 241.981 C 192.691 240.846, 199.473 239.265, 200.691 238.467 C 201.949 237.642, 203.191 235.497, 203.566 233.501 C 204.367 229.228, 202.208 190.676, 200.987 187.465 C 199.794 184.327, 196.247 183.483, 171.837 180.531 C 157.661 178.817, 152.551 178.705, 149.242 180.034 M 211 184.482 C 211 185.318, 211.942 195.114, 213.093 206.251 C 214.244 217.388, 215.256 234.259, 215.343 243.742 L 215.500 260.985 220.184 260.992 C 224.552 260.999, 224.888 260.815, 225.184 258.250 C 225.715 253.634, 224.214 214.537, 223.050 202.667 C 221.368 185.513, 221.260 185.088, 218.456 184.508 C 217.105 184.229, 214.875 183.766, 213.500 183.481 C 211.702 183.108, 211 183.389, 211 184.482 M 188.500 212.750 C 188.500 226.522, 188.147 232.120, 187.169 233.836 C 186.437 235.120, 186.054 236.387, 186.318 236.651 C 187.286 237.619, 194.813 234.930, 195.397 233.407 C 196.237 231.219, 196.016 207.639, 195.095 201.163 C 194.352 195.935, 193.005 194.046, 190 194.015 C 188.719 194.002, 188.500 196.743, 188.500 212.750 M 37.909 210.480 C 37.252 214.341, 36.441 223.350, 36.107 230.500 L 35.500 243.500 29.500 243.540 C 24.662 243.572, 19 245.066, 19 246.310 C 19 246.784, 40.948 245.914, 66 244.448 C 102.898 242.289, 107.277 241.877, 106.072 240.672 C 104.848 239.448, 94.851 239.593, 87.053 240.949 C 79.178 242.318, 50.621 242.742, 50 241.500 C 49.384 240.267, 68.853 235.238, 74.777 235.100 L 79.053 235 78.777 220.253 L 78.500 205.506 73 204.847 C 69.975 204.485, 61.111 204.024, 53.301 203.824 L 39.103 203.461 37.909 210.480 M 146.686 213.661 C 145.879 225.088, 146.925 240.693, 148.591 242.075 C 149.299 242.663, 151.144 242.999, 152.690 242.822 C 155.896 242.455, 155.846 243.164, 154.482 217.750 L 153.799 205 150.548 205 L 147.297 205 146.686 213.661 M 129.168 240.595 C 123.502 244.563, 115.013 246.235, 83.766 249.534 C 80.612 249.867, 77.773 250.558, 77.457 251.070 C 76.779 252.167, 86.156 252.188, 93.750 251.106 C 98.175 250.476, 98.998 250.605, 98.985 251.929 C 98.951 255.368, 95.960 257.350, 89.262 258.373 C 83.789 259.208, 33.060 263, 27.355 263 C 23.095 263, 23 262.928, 23 259.700 C 23 255.130, 24.527 254.016, 30.950 253.900 C 34.003 253.845, 37.625 253.404, 39 252.920 C 40.677 252.329, 38.649 252.159, 32.843 252.403 C 28.082 252.603, 23.694 253.071, 23.093 253.443 C 22.443 253.844, 22 257.518, 22 262.508 C 22 271.729, 24.636 294.036, 25.872 295.272 C 26.502 295.902, 92.948 294.239, 93.727 293.573 C 93.852 293.467, 95.056 287.416, 96.402 280.128 C 97.749 272.840, 99.576 265.770, 100.461 264.418 C 103.087 260.411, 109.440 256.424, 119.266 252.615 C 128.803 248.919, 130.252 247.683, 131.452 242.217 C 132.267 238.506, 132.209 238.465, 129.168 240.595 M 124 253.047 C 122.075 254.054, 117.943 256.048, 114.817 257.479 C 107.151 260.990, 106.493 262.804, 102.518 291.424 C 101.683 297.432, 101 303.009, 101 303.818 C 101 305.052, 102.445 305.178, 110.037 304.605 C 121.542 303.736, 123.550 302.949, 124.821 298.812 C 125.381 296.990, 126.078 287.175, 126.371 277 C 126.663 266.825, 127.327 256.813, 127.846 254.750 C 128.906 250.537, 128.849 250.512, 124 253.047 M 15.872 255.657 C 14.816 256.933, 14.521 261.361, 14.591 274.907 C 14.689 293.909, 15.760 300.266, 19.169 302.091 C 21.073 303.110, 21.217 302.994, 20.702 300.858 C 17.942 289.414, 16.829 270.191, 18.322 259.750 C 19.172 253.806, 18.431 252.568, 15.872 255.657 M 213.592 264.851 C 213.270 265.371, 213.293 269.821, 213.642 274.738 L 214.277 283.680 219.388 283.201 C 222.200 282.937, 224.840 282.222, 225.256 281.611 C 225.671 281, 225.896 276.900, 225.756 272.500 L 225.500 264.500 219.838 264.203 C 216.724 264.039, 213.913 264.331, 213.592 264.851 M 176.589 266.627 C 176.246 267.523, 176.260 270.478, 176.620 273.195 C 177.564 280.306, 179.270 281.141, 192.130 280.786 L 202.500 280.500 202.813 277.250 L 203.127 274 190.813 273.785 L 178.500 273.570 190.294 273.253 C 203.031 272.910, 203.900 272.498, 202.066 267.672 L 201.050 265 189.132 265 C 179.046 265, 177.118 265.250, 176.589 266.627 M 215.852 286.684 C 214.215 286.949, 212.953 287.951, 212.547 289.307 L 211.890 291.500 210.739 289.130 C 209.593 286.771, 209.525 286.762, 195.407 287.187 C 181.772 287.597, 180.967 287.742, 174.474 290.938 C 168.038 294.107, 158.761 301.896, 157.827 304.916 C 157.515 305.927, 154.175 306.673, 146.132 307.529 C 134.683 308.746, 132.501 309.536, 133.488 312.107 C 133.932 313.266, 136.145 313.489, 144.770 313.244 C 161.327 312.773, 161.475 312.725, 165.421 306.556 C 168.980 300.993, 174.982 296.194, 181 294.099 C 182.925 293.429, 192.375 292.476, 202 291.980 C 222.778 290.912, 226.213 290.354, 225.789 288.116 C 225.473 286.444, 221.163 285.823, 215.852 286.684 M 188 295.692 C 183.048 296.523, 179.209 298.112, 177.446 300.060 C 175.666 302.027, 175.683 302.031, 179.323 300.509 C 181.343 299.665, 186.361 298.690, 190.474 298.343 C 196.994 297.792, 198.037 297.932, 198.615 299.439 C 199.141 300.809, 199.454 300.891, 200.124 299.834 C 200.589 299.100, 200.976 297.712, 200.985 296.750 C 200.997 295.287, 200.140 295.022, 195.750 295.136 C 192.863 295.211, 189.375 295.461, 188 295.692 M 283 304.165 L 283 307.329 368.250 306.675 C 457.124 305.993, 496 304.662, 496 302.301 C 496 301.241, 476.269 301, 389.500 301 L 283 301 283 304.165 M 172.200 306.259 C 170.976 307.734, 166.870 317, 167.440 317 C 168.107 317, 174.141 305.808, 173.708 305.375 C 173.475 305.142, 172.797 305.540, 172.200 306.259 M 31.143 307.890 C 29.323 309.044, 30.537 312.670, 33.326 314.409 C 34.936 315.414, 42.321 315.933, 61.774 316.409 L 88.047 317.052 90.549 314.353 C 93.739 310.910, 93.263 309.578, 88.706 309.192 C 85.556 308.925, 84.985 309.213, 84.451 311.341 C 84.078 312.825, 82.975 313.938, 81.667 314.149 C 80.475 314.342, 69.938 314.355, 58.250 314.178 L 37 313.855 37 310.428 C 37 307.535, 36.649 307.002, 34.750 307.015 C 33.513 307.024, 31.889 307.418, 31.143 307.890 M 120.500 318.135 C 106.647 320.661, 104.776 321.257, 101.389 324.232 C 96.744 328.310, 95.305 331.347, 94.236 339.324 C 93.559 344.380, 93.636 346, 94.554 346 C 95.815 346, 96.959 342.951, 96.992 339.500 C 97.002 338.400, 97.454 335.905, 97.996 333.955 C 98.975 330.432, 99.029 330.403, 106.740 329.265 C 118.629 327.510, 128 324.327, 128 322.042 C 128 319.664, 126.984 316.966, 126.143 317.112 C 125.789 317.173, 123.250 317.634, 120.500 318.135 M 18.637 320.276 C 16.111 322.123, 17.502 324.521, 21.716 325.584 C 25.034 326.422, 25.523 327.023, 27.422 332.604 C 28.565 335.961, 30.251 339.786, 31.168 341.104 C 32.086 342.422, 31.248 339.225, 29.306 334 C 25.926 324.905, 22.705 319, 21.123 319 C 20.716 319, 19.597 319.574, 18.637 320.276 M 28.738 323.596 C 27.256 325.078, 28.084 325.946, 31.984 326.996 C 43.979 330.226, 92.217 330.484, 93.429 327.325 C 93.724 326.555, 93.411 325.742, 92.733 325.519 C 92.055 325.295, 78.675 324.898, 63 324.636 C 47.325 324.373, 33.370 323.866, 31.988 323.508 C 30.606 323.150, 29.144 323.190, 28.738 323.596 M 155.385 335 C 155.385 341.875, 155.545 344.688, 155.740 341.250 C 155.936 337.813, 155.936 332.188, 155.740 328.750 C 155.545 325.313, 155.385 328.125, 155.385 335 M 228.246 325.250 C 228.750 326.780, 238.036 327.404, 246.750 326.494 C 257.281 325.393, 253.742 324, 240.417 324 C 230.797 324, 227.930 324.294, 228.246 325.250 M 260.343 339.631 L 260.186 354.259 267.784 353.570 C 271.963 353.192, 275.746 352.657, 276.191 352.382 C 276.636 352.107, 277 346.541, 277 340.012 C 277 325.442, 276.710 324.999, 267.179 325.001 L 260.500 325.003 260.343 339.631 M 323.990 327.250 C 318.035 331.303, 316.684 334.097, 316.261 343.227 C 315.815 352.877, 317.474 357.263, 322.715 360.287 C 325.515 361.904, 326.289 361.972, 328.715 360.820 C 332.743 358.907, 334.997 353.670, 334.998 346.218 C 335 339.426, 333.390 334.378, 330.464 332 C 329.202 330.974, 329.390 331.554, 331.059 333.834 C 333.156 336.698, 333.500 338.272, 333.500 345.010 C 333.500 351.424, 333.116 353.368, 331.394 355.677 C 325.559 363.499, 317.077 356.942, 317.022 344.566 C 316.981 335.361, 323.204 327.014, 330.115 327.004 C 333.694 326.999, 337.880 330.526, 340.104 335.421 C 342.231 340.105, 342.692 338.591, 340.636 333.671 C 338.826 329.339, 333.539 325, 330.071 325 C 328.545 325, 325.808 326.012, 323.990 327.250 M 439.818 327.703 C 435.934 332.129, 434.794 336.122, 435.153 344.041 C 435.526 352.254, 437.388 356, 441.098 356 C 445.770 356, 447.985 343.673, 444.162 338.952 C 441.443 335.594, 439.996 337.296, 440.030 343.809 C 440.054 348.284, 440.286 349.113, 441.114 347.689 C 441.693 346.693, 441.924 345.245, 441.627 344.471 C 441.330 343.697, 441.546 342.781, 442.106 342.435 C 442.753 342.035, 443.011 343.354, 442.812 346.051 C 442.608 348.829, 441.875 350.677, 440.691 351.398 C 434.645 355.082, 434.347 333.763, 440.390 329.765 C 441 329.361, 442.744 329.024, 444.265 329.015 C 446.319 329.004, 447.538 329.835, 449.011 332.250 C 450.101 334.038, 450.994 335.004, 450.996 334.398 C 450.998 333.792, 449.973 331.767, 448.718 329.898 C 446.060 325.940, 442.200 324.988, 439.818 327.703 M 476.150 328.340 C 470.779 334.058, 470.560 350, 475.853 350 C 479.952 350, 481.491 343.908, 479.011 337.500 C 477.896 334.617, 477.795 334.575, 476.425 336.441 C 474.872 338.557, 474.388 345.044, 475.903 343.450 C 476.400 342.928, 477.022 341.600, 477.287 340.500 C 477.681 338.861, 477.786 338.951, 477.869 341 C 478.005 344.385, 476.692 346.203, 474.670 345.427 C 471.085 344.051, 473.549 331.382, 477.850 329.080 C 480.624 327.596, 480.740 327.638, 482.428 330.750 C 483.270 332.303, 483.937 332.835, 483.960 331.973 C 484.014 329.896, 481.182 326, 479.618 326 C 478.920 326, 477.359 327.053, 476.150 328.340 M 125.473 329.044 C 125.118 329.618, 125.138 333.808, 125.516 338.354 L 126.205 346.621 117.352 348.317 C 112.484 349.250, 106.946 350.010, 105.046 350.007 C 103.146 350.003, 96.846 350.526, 91.046 351.170 C 82.288 352.141, 77.109 352.054, 60.500 350.654 C 49.500 349.726, 38.206 348.343, 35.401 347.580 C 32.597 346.816, 27.310 345.871, 23.651 345.479 C 17.009 344.768, 17 344.770, 17 347.306 C 17 351.454, 20.217 352.115, 54.500 355.010 C 67.700 356.125, 85.921 357.670, 94.991 358.444 C 104.062 359.218, 111.699 359.635, 111.962 359.371 C 113.019 358.314, 109.406 357.200, 102.820 356.551 C 91.506 355.436, 96.210 352.213, 109.378 352.058 L 114.256 352 113.616 356 C 112.860 360.729, 111.474 360.501, 132 359.023 C 151.711 357.604, 156 357.006, 156.001 355.678 C 156.002 354.815, 152.265 354.587, 142.001 354.826 L 128 355.151 128 341.576 C 128 329.155, 127.361 325.988, 125.473 329.044 M 219.500 342.958 L 219.500 358 222.277 358 L 225.053 358 224.777 343.250 L 224.500 328.500 222 328.208 L 219.500 327.915 219.500 342.958 M 18 331 C 18 332.467, 18.667 333, 20.500 333 C 23.292 333, 23.947 330.577, 21.418 329.607 C 18.775 328.593, 18 328.909, 18 331 M 174.532 330.969 C 166.114 336.518, 160.961 350.293, 163.934 359.300 C 165.380 363.681, 171.450 369.333, 176.498 370.999 C 181.205 372.553, 186.563 371.158, 190.018 367.481 L 192.416 364.928 188.488 366.570 C 185.912 367.646, 182.787 368.064, 179.414 367.784 C 175.207 367.436, 173.633 366.733, 170.779 363.929 C 166.134 359.366, 165 356.979, 165 351.762 C 165 343.236, 173.510 334, 181.365 334 C 189.189 334, 196.862 345.108, 195.699 354.750 C 195.326 357.839, 195.429 358.801, 195.993 357.500 C 199.196 350.108, 195.126 337.277, 187.924 332.060 C 182.989 328.485, 178.817 328.145, 174.532 330.969 M 116 330.679 C 102.727 332.835, 98.650 335, 107.860 335 C 117.102 335, 122 333.914, 122 331.864 C 122 329.991, 121.201 329.833, 116 330.679 M 232.250 333.014 C 229.907 333.974, 229.363 337.019, 230.667 341.890 C 231.301 344.260, 231.389 344.275, 240.903 343.632 C 255.104 342.673, 255.158 342.648, 254.799 337.120 L 254.500 332.500 244.500 332.296 C 239 332.184, 233.488 332.507, 232.250 333.014 M 51.500 335.038 C 60.530 336.159, 70 336.139, 70 335 C 70 334.380, 65.348 334.056, 57.750 334.147 C 47.248 334.273, 46.356 334.400, 51.500 335.038 M 18 337.981 C 18 339.329, 18.878 340.154, 20.750 340.564 C 22.262 340.896, 24.117 341.361, 24.871 341.598 C 25.863 341.911, 26.074 341.405, 25.634 339.765 C 25.300 338.519, 25.021 337.163, 25.014 336.750 C 25.006 336.337, 23.425 336, 21.500 336 C 18.678 336, 18 336.384, 18 337.981 M 110.250 337.330 C 102.406 338.282, 102 338.454, 102 340.809 L 102 343.287 111.250 342.736 C 120.554 342.182, 118.585 343.173, 107.658 344.543 C 104.995 344.877, 103.038 345.371, 103.309 345.642 C 104.134 346.467, 119.234 344.051, 120.663 342.865 C 122.725 341.153, 122.406 335.962, 120.250 336.164 C 119.287 336.255, 114.787 336.779, 110.250 337.330 M 451.079 337.583 C 451.127 338.748, 451.364 338.985, 451.683 338.188 C 451.972 337.466, 451.936 336.603, 451.604 336.271 C 451.272 335.939, 451.036 336.529, 451.079 337.583 M 21.500 338 C 21.840 338.550, 22.316 339, 22.559 339 C 22.802 339, 23 338.550, 23 338 C 23 337.450, 22.523 337, 21.941 337 C 21.359 337, 21.160 337.450, 21.500 338 M 174.900 339.134 C 172.920 340.282, 170.558 342.479, 169.650 344.015 C 167.592 347.499, 167.522 353, 169.502 355.559 C 170.611 356.990, 170.855 357.067, 170.434 355.851 C 169.790 353.989, 171.078 352.782, 172.606 353.816 C 173.161 354.192, 174.377 355.613, 175.308 356.973 L 177 359.445 177 355.657 C 177 350.826, 178.319 348.404, 181.980 346.510 C 186.047 344.407, 188.623 344.624, 190.443 347.223 C 192.745 350.508, 192.334 348.276, 189.917 344.366 C 187.191 339.955, 184.313 339.342, 178.339 341.900 L 173.500 343.973 177 340.946 C 179.604 338.695, 181.140 338.066, 183 338.490 C 184.902 338.924, 185.141 338.818, 184 338.046 C 181.709 336.495, 178.863 336.836, 174.900 339.134 M 48 339.862 C 51.845 341.122, 70.647 342.238, 69.487 341.137 C 68.944 340.622, 63.325 339.940, 57 339.622 C 50.551 339.297, 46.598 339.402, 48 339.862 M 342.336 347 C 342.336 351.125, 342.513 352.813, 342.728 350.750 C 342.944 348.688, 342.944 345.313, 342.728 343.250 C 342.513 341.188, 342.336 342.875, 342.336 347 M 452.195 342.500 C 452.215 344.150, 452.439 344.704, 452.693 343.731 C 452.947 342.758, 452.930 341.408, 452.656 340.731 C 452.382 340.054, 452.175 340.850, 452.195 342.500 M 51.500 345.982 C 57.905 346.837, 68.609 347.252, 67.917 346.619 C 67.688 346.409, 62.550 346, 56.500 345.709 C 48.689 345.334, 47.239 345.413, 51.500 345.982 M 364.207 351 L 364.500 354.500 376 355.684 C 382.325 356.335, 390.027 356.898, 393.116 356.934 L 398.731 357 397.909 352.750 C 397.457 350.413, 397.068 348.240, 397.044 347.923 C 397.020 347.606, 389.556 347.381, 380.457 347.423 L 363.914 347.500 364.207 351 M 452.203 350.256 C 451.630 350.946, 450.851 352.746, 450.472 354.256 C 449.796 356.951, 449.866 357, 454.392 357 C 456.926 357, 459 356.761, 459 356.468 C 459 356.175, 458.348 354.375, 457.551 352.468 C 456.058 348.896, 454.028 348.056, 452.203 350.256 M 249 352.601 C 247.625 352.767, 242.563 353.190, 237.750 353.541 C 231.310 354.011, 229 354.542, 229 355.552 C 229 356.630, 230.451 356.817, 235.750 356.423 C 253.275 355.121, 255 354.852, 255 353.420 C 255 352.046, 254.344 351.956, 249 352.601 M 171.564 360.293 C 171.940 361.279, 172.499 361.834, 172.807 361.526 C 173.115 361.219, 172.808 360.412, 172.124 359.733 C 171.136 358.753, 171.022 358.868, 171.564 360.293 M 108.798 372.250 C 103.898 378.778, 102.893 378.391, 122.807 377.644 C 141.001 376.961, 144 376.568, 144 374.868 C 144 373.299, 139.652 372.186, 127.184 370.564 C 111.393 368.510, 111.621 368.489, 108.798 372.250" stroke="none" fill="black" fill-rule="evenodd"/>
</svg>